<svg id="Group_306" data-name="Group 306" xmlns="http://www.w3.org/2000/svg" width="25.162" height="28.244" viewBox="0 0 25.162 28.244">
  <path id="Path_380" data-name="Path 380" d="M230.887,99.439H210.425a2.049,2.049,0,0,1-2.047-2.047V95.123a7.162,7.162,0,0,1,6.94-7.182.464.464,0,0,1,.374.163l4.8,5.567h.387l4.8-5.565a.475.475,0,0,1,.378-.163,7.175,7.175,0,0,1,6.876,7.179v2.269A2.049,2.049,0,0,1,230.887,99.439ZM215.128,88.9a6.221,6.221,0,0,0-5.807,6.228v2.269a1.105,1.105,0,0,0,1.1,1.1h20.462a1.105,1.105,0,0,0,1.1-1.1V95.123a6.232,6.232,0,0,0-5.749-6.223l-4.788,5.551a.472.472,0,0,1-.357.164h-.819a.471.471,0,0,1-.357-.164Z" transform="translate(-208.11 -71.195)" fill="#004560"/>
  <path id="Path_381" data-name="Path 381" d="M235.819,65.551c-.585,2.223-.791,2.339-1.622,2.339-.007,0-.011,0-.018,0-1.072,3.261-3.5,5.016-4.452,5.016s-3.378-1.756-4.45-5.017c-.007,0-.012,0-.02,0-.831,0-1.038-.116-1.622-2.339-.226-.863.133-1.476.773-1.476a1.166,1.166,0,0,1,.351.06l-1.234-.707a1.647,1.647,0,0,0-.458.4,2.206,2.206,0,0,0-.292,1.944c.456,1.736.763,2.7,1.857,2.942,1.236,3.158,3.734,5.074,5.1,5.074s3.861-1.916,5.1-5.074c1.093-.243,1.4-1.207,1.855-2.941a2.2,2.2,0,0,0-.292-1.945,1.638,1.638,0,0,0-.525-.442l-.816.685C235.686,64.075,236.045,64.688,235.819,65.551Z" transform="translate(-217.146 -55.682)" fill="#004560"/>
  <path id="Path_382" data-name="Path 382" d="M232.31,54.731h-.8a.5.5,0,0,0-.672,0h-.9a.5.5,0,0,0-.68,0h-.764a.5.5,0,0,1-.5-.5q0-.405,0-.8c.013-2.9-.043-4.736-1.2-5.308a6.506,6.506,0,0,1,.078,1v1.037a.5.5,0,0,1-.179.385l-.816.686a.5.5,0,0,1-.323.118.674.674,0,0,0-.2.037.506.506,0,0,1-.152.024,7.326,7.326,0,0,1-3.566-1.212,6.242,6.242,0,0,1-.627-.466c.068.121.13.227.179.312a.5.5,0,0,1-.434.756,4.558,4.558,0,0,1-3.771-1.8,6.516,6.516,0,0,1-1.393,2.3.5.5,0,0,1-.574.052l-1.234-.707a.5.5,0,0,1-.253-.436V49.121a6.493,6.493,0,0,1,.073-.966c-1.091.608-1.144,2.42-1.131,5.269,0,.264,0,.533,0,.8a.5.5,0,0,1-.5.5h-.764a.5.5,0,0,0-.68,0h-.9a.5.5,0,0,0-.672,0h-.8a.5.5,0,0,1-.5-.5c0-3.247,0-6.315,2.445-8.312a5.951,5.951,0,0,1,4.965-1.04,6.651,6.651,0,0,1,9.258-1l-.266.428.3-.4c.071.056.121.1.171.141s.108.094.149.136a6.491,6.491,0,0,1,.674.706,5.967,5.967,0,0,1,5.023,1.028c2.444,2,2.444,5.065,2.444,8.312A.5.5,0,0,1,232.31,54.731ZM209.627,51.26a.517.517,0,0,1,.122.015.5.5,0,0,1,.38.488v1.8c.062-.373.115-.713.158-1.016a.5.5,0,0,1,.469-.431.516.516,0,0,1,.515.375l.192.738c-.014-3.239.029-6,2.753-6.282a.5.5,0,0,1,.535.637,5.667,5.667,0,0,0-.219,1.542v.784l.622.356a8.648,8.648,0,0,0,1.236-2.6.5.5,0,0,1,.466-.352h.013a.5.5,0,0,1,.471.327,3.57,3.57,0,0,0,2.5,2.056,9.215,9.215,0,0,1-.808-1.944.5.5,0,0,1,.853-.462,18,18,0,0,0,2.276,2.052,6.668,6.668,0,0,0,2.971,1.056,1.73,1.73,0,0,1,.214-.043l.513-.431v-.8a5.668,5.668,0,0,0-.219-1.546.5.5,0,0,1,.1-.456.512.512,0,0,1,.43-.181c2.8.232,2.844,3.147,2.83,6.287l.192-.737a.5.5,0,0,1,.984.056c.043.3.1.641.157,1.016v-1.8a.5.5,0,0,1,.946-.237A6.5,6.5,0,0,1,231.8,53.1c-.027-2.65-.25-4.916-2.071-6.4a4.436,4.436,0,0,0-2.888-.956,6.693,6.693,0,0,0-1.58.2.5.5,0,0,1-.522-.188,5.729,5.729,0,0,0-.764-.838c-.045-.045-.071-.066-.1-.088-.054-.046-.1-.081-.139-.116l.265-.429-.311.395a5.647,5.647,0,0,0-8.033,1.064.5.5,0,0,1-.518.188,6.67,6.67,0,0,0-1.527-.185,4.437,4.437,0,0,0-2.889.956c-1.822,1.489-2.044,3.755-2.071,6.406a6.542,6.542,0,0,1,.524-1.574A.5.5,0,0,1,209.627,51.26Z" transform="translate(-207.651 -42.45)" fill="#004560"/>
</svg>
