<svg xmlns="http://www.w3.org/2000/svg" width="24.871" height="28.244" viewBox="0 0 24.871 28.244">
  <path id="Path_435" data-name="Path 435" d="M59.249,37.13l-6.355.828a4.212,4.212,0,0,0,.411-.3,6.97,6.97,0,0,0,2.113-2.91,2.49,2.49,0,0,0-2.986-3.539A6.972,6.972,0,0,0,49.208,32.8a5.017,5.017,0,0,0-1.426,2.143,6.389,6.389,0,0,0-1.914-3.216,8.35,8.35,0,0,0-3.862-1.911,3.269,3.269,0,0,0-3.178.882c-1.358,1.608-.392,4.581,2.2,6.766a5.022,5.022,0,0,0,.7.492H36.2a.914.914,0,0,0-.913.913v2.751a.911.911,0,0,0,.389.745V56.955a1.032,1.032,0,0,0,1.031,1.031H58.742a1.032,1.032,0,0,0,1.031-1.031V42.366a.911.911,0,0,0,.389-.745V38.87C60.161,38.367,59.752,37.13,59.249,37.13Zm.008,1.741v2.751a.008.008,0,0,1-.008.008l-11.071,0V38.866Zm-9.466-5.378A6.056,6.056,0,0,1,52.582,32.1a1.61,1.61,0,0,1,1.982,2.348,6.062,6.062,0,0,1-1.843,2.517c-1.4,1.181-3.673.987-4.54.859C48.2,36.947,48.386,34.677,49.791,33.492ZM39.52,31.282a2.06,2.06,0,0,1,1.637-.636,4.2,4.2,0,0,1,.7.062,7.443,7.443,0,0,1,3.429,1.711c1.773,1.5,1.973,4.4,1.987,5.405-1,.156-3.889.446-5.662-1.05C39.48,34.978,38.524,32.463,39.52,31.282ZM36.2,38.862l11.071,0v2.759l-11.079,0Zm.381,18.093V42.534h10.69V57.082H36.71A.126.126,0,0,1,36.583,56.955Zm22.158.126H48.178V42.534h10.69V56.955A.126.126,0,0,1,58.742,57.082Z" transform="translate(-35.29 -29.742)" fill="#004560"/>
</svg>
