<svg xmlns="http://www.w3.org/2000/svg" width="20.495" height="30.951" viewBox="0 0 20.495 30.951">
  <g id="Group_309" data-name="Group 309" transform="translate(-367.201 -920.772)">
    <path id="Path_436" data-name="Path 436" d="M385.288,954.03c-1.16-4.71-3.414-7.644-4.519-8.076-.089-.923-6.537.093-6.537.093-1.579.875-3.277,4.157-4.565,8.048-1.246,3.766-1.86,7.15-1.672,8.766v0a.722.722,0,0,0,.027.183,1.2,1.2,0,0,0,.7.8c1.426.926,4.8,1.577,8.74,1.577,4.1,0,7.584-.7,8.9-1.689a1.186,1.186,0,0,0,.5-.584.751.751,0,0,0,.061-.288v-.006C387.163,961.3,386.255,957.953,385.288,954.03Z" transform="translate(0 -14.45)" fill="#fff" stroke="#004560" stroke-linecap="round" stroke-miterlimit="10" stroke-width="1.5"/>
    <path id="Path_437" data-name="Path 437" d="M398.516,954.7a6.259,6.259,0,0,0-1.221-7.684,3.71,3.71,0,0,1-.733,4.411" transform="translate(-17.19 -15.323)" fill="#fff" stroke="#004560" stroke-linecap="round" stroke-miterlimit="10" stroke-width="1.5"/>
    <path id="Path_438" data-name="Path 438" d="M383.348,931.32l-.666.4c-.693.421-1.394-.088-2.027-.494,0,0-3.051-2.5-3.6-3a1.544,1.544,0,0,1,.3-2.192s3.049-1.437,3.659-1.748a1.392,1.392,0,0,1,2.086,1.185c.109.671.745,3.815.745,3.815C383.991,930.172,384.042,930.9,383.348,931.32Z" transform="translate(-5.264 -1.561)" fill="#fff" stroke="#004560" stroke-linecap="round" stroke-miterlimit="10" stroke-width="1.5"/>
    <path id="Path_439" data-name="Path 439" d="M387.17,930.828l-.777-.057c-.809-.059-1.073-1.04-1.342-1.874,0,0-.978-4.555-1.131-5.418s.733-2.013,1.542-1.953c0,0,3.312.669,3.988.78s1.689.917.981,2.6c-.31.735-1.66,4.268-1.66,4.268C388.369,930.136,387.979,930.887,387.17,930.828Z" transform="translate(-9.581)" fill="#fff" stroke="#004560" stroke-linecap="round" stroke-miterlimit="10" stroke-width="1.5"/>
    <path id="Path_440" data-name="Path 440" d="M390.744,933.5l-.709-.324c-.738-.338-.709-1.2-.727-1.956,0,0,.363-3.931.462-4.664a1.544,1.544,0,0,1,1.984-.979s2.9,1.719,3.5,2.049a1.393,1.393,0,0,1,.188,2.392c-.494.466-2.741,2.755-2.741,2.755C392.054,933.39,391.481,933.839,390.744,933.5Z" transform="translate(-12.829 -2.377)" fill="#fff" stroke="#004560" stroke-linecap="round" stroke-miterlimit="10" stroke-width="1.5"/>
    <rect id="Rectangle_1525" data-name="Rectangle 1525" width="6.537" height="1.451" rx="0.726" transform="translate(374.232 930.053)" fill="#fff" stroke="#004560" stroke-linecap="round" stroke-miterlimit="10" stroke-width="1.5"/>
    <g id="Group_308" data-name="Group 308" transform="translate(374.982 937.547)">
      <path id="Path_441" data-name="Path 441" d="M385.58,968.456v-.633a3.182,3.182,0,0,0,2.29,1.157c.609,0,.986-.256.986-.743,0-.341-.146-.634-1.644-1.474-1.254-.682-1.656-1.34-1.656-2.363a2.188,2.188,0,0,1,2.253-2.1v-.621h.5v.6a3.848,3.848,0,0,1,1.985.585v.585a3.733,3.733,0,0,0-2.1-.67c-1.23,0-2.07.6-2.07,1.608s.5,1.413,1.437,1.961c1.474.853,1.851,1.194,1.851,1.888,0,.792-.634,1.242-1.523,1.242A3.137,3.137,0,0,1,385.58,968.456Zm2.229,1.973a3.973,3.973,0,0,1-2.229-.706v-.585a3.631,3.631,0,0,0,2.339.78c1.279,0,2.12-.634,2.12-1.681,0-.974-.463-1.4-1.961-2.266-1.169-.67-1.34-.962-1.34-1.608,0-.706.548-1.12,1.5-1.12a3.406,3.406,0,0,1,2.058.731v.634a3.032,3.032,0,0,0-2.046-.865c-.621,0-.95.219-.95.646,0,.365.037.6,1.133,1.206,1.754.962,2.18,1.6,2.18,2.643a2.229,2.229,0,0,1-2.3,2.18v1.328h-.5Z" transform="translate(-385.556 -961.684)" fill="#1a1818" stroke="#004560" stroke-miterlimit="10" stroke-width="0.5"/>
    </g>
  </g>
</svg>
